<svg width="16" height="16" viewBox="0 0 16 16" fill="none" xmlns="http://www.w3.org/2000/svg">
<path d="M14.6666 12.1663C14.6666 13.5471 13.5473 14.6663 12.1666 14.6663C10.7859 14.6663 9.66659 13.5471 9.66659 12.1663C9.66659 10.7856 10.7859 9.66634 12.1666 9.66634C13.5473 9.66634 14.6666 10.7856 14.6666 12.1663Z" stroke="#6B7280" stroke-width="1.5"/>
<path d="M9.66659 2.99967C9.66659 2.0792 10.4128 1.33301 11.3333 1.33301H12.9999C13.9204 1.33301 14.6666 2.0792 14.6666 2.99967V4.66634C14.6666 5.58682 13.9204 6.33301 12.9999 6.33301H11.3333C10.4128 6.33301 9.66659 5.58682 9.66659 4.66634V2.99967Z" stroke="#6B7280" stroke-width="1.5"/>
<path d="M1.33325 2.99967C1.33325 2.0792 2.07944 1.33301 2.99992 1.33301H4.66659C5.58706 1.33301 6.33325 2.0792 6.33325 2.99967V4.66634C6.33325 5.58682 5.58706 6.33301 4.66659 6.33301H2.99992C2.07944 6.33301 1.33325 5.58682 1.33325 4.66634V2.99967Z" stroke="#6B7280" stroke-width="1.5"/>
<path d="M1.33325 11.333C1.33325 10.4125 2.07944 9.66634 2.99992 9.66634H4.66659C5.58706 9.66634 6.33325 10.4125 6.33325 11.333V12.9997C6.33325 13.9201 5.58706 14.6663 4.66659 14.6663H2.99992C2.07944 14.6663 1.33325 13.9201 1.33325 12.9997V11.333Z" stroke="#6B7280" stroke-width="1.5"/>
</svg>
