<svg width="12" height="18" viewBox="0 0 12 18" fill="none" xmlns="http://www.w3.org/2000/svg">
<path d="M5.16667 2.33333H6.83333M6 13.1667V13.175M1 3.16667C1 2.72464 1.17559 2.30072 1.48816 1.98816C1.80072 1.67559 2.22464 1.5 2.66667 1.5H9.33333C9.77536 1.5 10.1993 1.67559 10.5118 1.98816C10.8244 2.30072 11 2.72464 11 3.16667V14.8333C11 15.2754 10.8244 15.6993 10.5118 16.0118C10.1993 16.3244 9.77536 16.5 9.33333 16.5H2.66667C2.22464 16.5 1.80072 16.3244 1.48816 16.0118C1.17559 15.6993 1 15.2754 1 14.8333V3.16667Z" stroke="#6B7280" stroke-width="2" stroke-linecap="round" stroke-linejoin="round"/>
</svg>
