<svg width="20" height="20" viewBox="0 0 20 20" fill="none" xmlns="http://www.w3.org/2000/svg">
<g clip-path="url(#clip0_848_12341)">
<path d="M7.66407 8.3335C7.49831 8.3335 7.33934 8.39934 7.22213 8.51655C7.10492 8.63376 7.03907 8.79274 7.03907 8.9585C7.03907 9.12426 7.10492 9.28323 7.22213 9.40044C7.33934 9.51765 7.49831 9.5835 7.66407 9.5835H13.0807C13.2465 9.5835 13.4055 9.51765 13.5227 9.40044C13.6399 9.28323 13.7057 9.12426 13.7057 8.9585C13.7057 8.79274 13.6399 8.63376 13.5227 8.51655C13.4055 8.39934 13.2465 8.3335 13.0807 8.3335H7.66407ZM5.67907 11.6668C5.51331 11.6668 5.35434 11.7327 5.23713 11.8499C5.11992 11.9671 5.05407 12.1261 5.05407 12.2918C5.05407 12.4576 5.11992 12.6166 5.23713 12.7338C5.35434 12.851 5.51331 12.9168 5.67907 12.9168H11.0957C11.2615 12.9168 11.4205 12.851 11.5377 12.7338C11.6549 12.6166 11.7207 12.4576 11.7207 12.2918C11.7207 12.1261 11.6549 11.9671 11.5377 11.8499C11.4205 11.7327 11.2615 11.6668 11.0957 11.6668H5.67907ZM4.36157 15.0002C4.19581 15.0002 4.03684 15.066 3.91963 15.1832C3.80242 15.3004 3.73657 15.4594 3.73657 15.6252C3.73657 15.7909 3.80242 15.9499 3.91963 16.0671C4.03684 16.1843 4.19581 16.2502 4.36157 16.2502H9.77824C9.944 16.2502 10.103 16.1843 10.2202 16.0671C10.3374 15.9499 10.4032 15.7909 10.4032 15.6252C10.4032 15.4594 10.3374 15.3004 10.2202 15.1832C10.103 15.066 9.944 15.0002 9.77824 15.0002H4.36157Z" fill="#6B7280"/>
<path d="M3.43766 2.83329e-05H16.5627C17.0145 -0.00181174 17.4622 0.0859927 17.8799 0.258359C18.2976 0.430725 18.677 0.684229 18.996 1.00419C19.316 1.32324 19.5695 1.70259 19.7418 2.12027C19.9142 2.53796 20.002 2.98568 20.0002 3.43753C20.0002 4.59086 19.6035 5.76586 19.0602 6.90419C18.5168 8.04169 17.7977 9.2017 17.1002 10.3242L17.0935 10.335C16.386 11.475 15.7027 12.5775 15.1935 13.6434C14.6818 14.7125 14.3752 15.685 14.3752 16.5625C14.3752 16.9405 14.4731 17.3119 14.6594 17.6408C14.8457 17.9696 15.114 18.2445 15.4382 18.4388C15.7624 18.6331 16.1314 18.74 16.5092 18.7493C16.887 18.7585 17.2608 18.6697 17.5941 18.4915C17.9273 18.3133 18.2088 18.0518 18.4109 17.7325C18.6131 17.4132 18.7291 17.0469 18.7475 16.6694C18.766 16.292 18.6864 15.9161 18.5164 15.5786C18.3465 15.241 18.0919 14.9533 17.7777 14.7434C17.7094 14.6977 17.6509 14.6391 17.6053 14.5708C17.5597 14.5026 17.528 14.426 17.512 14.3455C17.4961 14.2649 17.4961 14.1821 17.5121 14.1016C17.5282 14.0211 17.5599 13.9445 17.6056 13.8763C17.6512 13.808 17.7098 13.7495 17.7781 13.7039C17.8464 13.6583 17.923 13.6266 18.0035 13.6107C18.084 13.5947 18.1669 13.5947 18.2474 13.6108C18.3279 13.6268 18.4044 13.6586 18.4727 13.7042C19.0854 14.1142 19.55 14.7103 19.7982 15.4046C20.0463 16.0988 20.0647 16.8544 19.8506 17.5599C19.6366 18.2654 19.2015 18.8834 18.6095 19.3227C18.0175 19.7621 17.2999 19.9995 16.5627 20H3.75016C2.83848 20 1.96414 19.6379 1.31949 18.9932C0.674829 18.3486 0.312665 17.4742 0.312665 16.5625C0.312665 14.7009 1.361 12.6825 2.471 10.8109C2.761 10.3225 3.056 9.84253 3.346 9.37086C4.01266 8.28419 4.65183 7.24336 5.13266 6.25586H2.82516C2.13933 6.25586 1.2535 6.09503 0.685998 5.39336C0.235469 4.84181 -0.00724107 4.14966 0.000164593 3.43753C0.000164593 2.52585 0.362329 1.6515 1.00699 1.00685C1.65164 0.362192 2.52598 2.83329e-05 3.43766 2.83329e-05ZM13.1252 16.5625C13.1252 15.4125 13.5218 14.2409 14.0652 13.1042C14.606 11.9725 15.3227 10.8184 16.0177 9.69919L16.0318 9.67586C16.7393 8.5367 17.4227 7.43253 17.9318 6.36586C18.4435 5.29503 18.7502 4.31836 18.7502 3.43753C18.7513 3.14995 18.6954 2.865 18.5859 2.59911C18.4764 2.33321 18.3153 2.09162 18.1119 1.88828C17.9086 1.68493 17.667 1.52384 17.4011 1.4143C17.1352 1.30476 16.8502 1.24893 16.5627 1.25003C15.9825 1.25003 15.4261 1.4805 15.0159 1.89073C14.6056 2.30097 14.3752 2.85737 14.3752 3.43753C14.3752 4.15836 14.726 4.69503 15.3477 5.11169C15.4589 5.18628 15.5433 5.29465 15.5883 5.42083C15.6334 5.547 15.6366 5.68431 15.5977 5.81249C15.5588 5.94068 15.4797 6.05296 15.3721 6.13279C15.2645 6.21261 15.1341 6.25576 15.0002 6.25586H6.51016C5.9685 7.49169 5.15683 8.81336 4.36266 10.105C4.08433 10.5584 3.80766 11.0075 3.546 11.4484C2.41683 13.3542 1.56266 15.0909 1.56266 16.5625C1.56266 17.1427 1.79313 17.6991 2.20337 18.1093C2.6136 18.5196 3.17 18.75 3.75016 18.75H13.911C13.4015 18.1351 13.1234 17.3611 13.1252 16.5625ZM1.25016 3.43753C1.24183 3.86336 1.386 4.27753 1.656 4.60669C1.86766 4.86753 2.27266 5.00586 2.82433 5.00586H13.541C13.2629 4.53038 13.1192 3.98831 13.1252 3.43753C13.1234 2.63893 13.4015 1.86495 13.911 1.25003H3.43766C2.8575 1.25003 2.3011 1.4805 1.89087 1.89073C1.48063 2.30097 1.25016 2.85737 1.25016 3.43753Z" fill="#6B7280"/>
</g>
<defs>
<clipPath id="clip0_848_12341">
<rect width="20" height="20" fill="white"/>
</clipPath>
</defs>
</svg>
