<svg width="20" height="20" viewBox="0 0 20 20" fill="none" xmlns="http://www.w3.org/2000/svg">
<path d="M10.0001 5.83317C10.4603 5.83317 10.8334 5.46007 10.8334 4.99984C10.8334 4.5396 10.4603 4.1665 10.0001 4.1665C9.53984 4.1665 9.16675 4.5396 9.16675 4.99984C9.16675 5.46007 9.53984 5.83317 10.0001 5.83317Z" fill="#6B7280"/>
<path d="M5 14.1665H15V15.8332H5V14.1665ZM8.33333 9.85817L10.66 12.1865L13.9367 8.90734L15 9.99984V6.6665H11.6667L12.7583 7.729L10.6592 9.82817L8.33333 7.49984L5 10.8332L6.17833 12.0115L8.33333 9.85817Z" fill="#6B7280"/>
<path d="M15.8334 2.50022H13.0851C13.0025 2.37752 12.9135 2.25929 12.8184 2.14605L12.8101 2.13605C12.1976 1.4232 11.3363 0.970784 10.4017 0.871053C10.1363 0.820977 9.86385 0.820977 9.59841 0.871053C8.66388 0.970784 7.80257 1.4232 7.19008 2.13605L7.18175 2.14605C7.08666 2.25902 6.99765 2.37697 6.91508 2.49939V2.50022H4.16675C3.50391 2.50088 2.86841 2.76449 2.39971 3.23318C1.93101 3.70188 1.66741 4.33738 1.66675 5.00022V16.6669C1.66741 17.3297 1.93101 17.9652 2.39971 18.4339C2.86841 18.9026 3.50391 19.1662 4.16675 19.1669H15.8334C16.4963 19.1662 17.1318 18.9026 17.6005 18.4339C18.0691 17.9652 18.3328 17.3297 18.3334 16.6669V5.00022C18.3328 4.33738 18.0691 3.70188 17.6005 3.23318C17.1318 2.76449 16.4963 2.50088 15.8334 2.50022ZM16.6667 16.6669C16.6667 16.8879 16.579 17.0999 16.4227 17.2561C16.2664 17.4124 16.0544 17.5002 15.8334 17.5002H4.16675C3.94573 17.5002 3.73377 17.4124 3.57749 17.2561C3.42121 17.0999 3.33341 16.8879 3.33341 16.6669V5.00022C3.33341 4.77921 3.42121 4.56724 3.57749 4.41096C3.73377 4.25468 3.94573 4.16689 4.16675 4.16689H7.95841C8.05405 3.69593 8.30955 3.27252 8.68164 2.9684C9.05373 2.66427 9.51952 2.49813 10.0001 2.49813C10.4806 2.49813 10.9464 2.66427 11.3185 2.9684C11.6906 3.27252 11.9461 3.69593 12.0417 4.16689H15.8334C16.0544 4.16689 16.2664 4.25468 16.4227 4.41096C16.579 4.56724 16.6667 4.77921 16.6667 5.00022V16.6669Z" fill="#6B7280"/>
</svg>
